<svg xmlns="http://www.w3.org/2000/svg" xmlns:xlink="http://www.w3.org/1999/xlink" id="Layer_1" width="32" height="32" x="0" y="0" enable-background="new 0 0 32 32" version="1.1" viewBox="0 0 32 32" xml:space="preserve"><linearGradient id="SVGID_1_" x1="20.939" x2="11.731" y1="1.026" y2="31.143" gradientUnits="userSpaceOnUse"><stop offset="0" style="stop-color:#d61395"/><stop offset=".266" style="stop-color:#bb1089"/><stop offset=".834" style="stop-color:#760769"/><stop offset=".999" style="stop-color:#61045f"/></linearGradient><circle cx="16.335" cy="16.085" r="15.742" fill="url(#SVGID_1_)" display="none"/><rect width="32" height="32" fill="#FFF"/><g><linearGradient id="SVGID_2_" x1="21.39" x2="8.556" y1="2.388" y2="28.7" gradientUnits="userSpaceOnUse"><stop offset="0" style="stop-color:#d61395"/><stop offset=".266" style="stop-color:#bb1089"/><stop offset=".834" style="stop-color:#760769"/><stop offset=".999" style="stop-color:#61045f"/></linearGradient><path fill="url(#SVGID_2_)" d="M15.21,16.909c-0.414-0.414-0.414-1.085,0-1.499c0.414-0.414,1.085-0.414,1.499,0 c3.125,3.125,8.026,3.415,11.481,0.871c0.174-0.833,0.268-1.695,0.268-2.579c0-1.103-0.143-2.173-0.41-3.192 c-0.316,0.713-1.029,1.212-1.859,1.212c-1.123,0-2.033-0.91-2.033-2.033s0.91-2.033,2.033-2.033c0.289,0,0.563,0.061,0.812,0.169 c-2.111-3.988-6.3-6.706-11.126-6.706c-6.95,0-12.583,5.634-12.583,12.583c0,6.311,4.646,11.536,10.704,12.443l-1.168,2.624 c-0.647,2.232,0.714,3.06,2.542,1.546l8.895-7.176L24.2,23.133c1.217-1.075,2.221-2.383,2.95-3.852 C23.179,20.921,18.432,20.131,15.21,16.909z M18.318,7.654c1.123,0,2.033,0.91,2.033,2.033s-0.91,2.033-2.033,2.033 c-1.123,0-2.033-0.91-2.033-2.033S17.195,7.654,18.318,7.654z"/></g></svg>